<?xml version="1.0" encoding="UTF-8" standalone="no"?>
<!DOCTYPE svg PUBLIC "-//W3C//DTD SVG 1.1//EN"
 "http://www.w3.org/Graphics/SVG/1.1/DTD/svg11.dtd">
<!-- Generated by graphviz version 2.43.0 (0)
 -->
<!-- Title: %3 Pages: 1 -->
<svg width="955pt" height="1523pt"
 viewBox="0.00 0.00 955.00 1523.00" xmlns="http://www.w3.org/2000/svg" xmlns:xlink="http://www.w3.org/1999/xlink">
<g id="graph0" class="graph" transform="scale(1 1) rotate(0) translate(4 1519)">
<title>%3</title>
<polygon fill="white" stroke="transparent" points="-4,4 -4,-1519 951,-1519 951,4 -4,4"/>
<!-- 0 -->
<g id="node1" class="node">
<title>0</title>
<ellipse fill="none" stroke="red" stroke-width="4" cx="326" cy="-1497" rx="27" ry="18"/>
<text text-anchor="middle" x="326" y="-1493.3" font-family="Times,serif" font-size="14.00">0</text>
</g>
<!-- 1 -->
<g id="node2" class="node">
<title>1</title>
<ellipse fill="none" stroke="red" stroke-width="4" cx="326" cy="-1410" rx="27" ry="18"/>
<text text-anchor="middle" x="326" y="-1406.3" font-family="Times,serif" font-size="14.00">1</text>
</g>
<!-- 0&#45;&gt;1 -->
<g id="edge1" class="edge">
<title>0&#45;&gt;1</title>
<path fill="none" stroke="red" stroke-width="4" d="M326,-1478.8C326,-1467.16 326,-1451.55 326,-1438.24"/>
<polygon fill="red" stroke="red" stroke-width="4" points="329.5,-1438.18 326,-1428.18 322.5,-1438.18 329.5,-1438.18"/>
<text text-anchor="middle" x="355.5" y="-1449.8" font-family="Times,serif" font-size="14.00" fill="red">456.649</text>
</g>
<!-- 2 -->
<g id="node3" class="node">
<title>2</title>
<ellipse fill="none" stroke="black" cx="326" cy="-1323" rx="27" ry="18"/>
<text text-anchor="middle" x="326" y="-1319.3" font-family="Times,serif" font-size="14.00">2</text>
</g>
<!-- 1&#45;&gt;2 -->
<g id="edge2" class="edge">
<title>1&#45;&gt;2</title>
<path fill="none" stroke="black" d="M326,-1391.8C326,-1380.16 326,-1364.55 326,-1351.24"/>
<polygon fill="black" stroke="black" points="329.5,-1351.18 326,-1341.18 322.5,-1351.18 329.5,-1351.18"/>
<text text-anchor="middle" x="355.5" y="-1362.8" font-family="Times,serif" font-size="14.00">1287.18</text>
</g>
<!-- 3 -->
<g id="node4" class="node">
<title>3</title>
<ellipse fill="none" stroke="black" cx="575" cy="-1236" rx="27" ry="18"/>
<text text-anchor="middle" x="575" y="-1232.3" font-family="Times,serif" font-size="14.00">3</text>
</g>
<!-- 1&#45;&gt;3 -->
<g id="edge3" class="edge">
<title>1&#45;&gt;3</title>
<path fill="none" stroke="black" d="M353.06,-1408.88C386.68,-1407.5 444.55,-1400.97 485,-1374 525.6,-1346.94 552.18,-1294.68 565.32,-1263.11"/>
<polygon fill="black" stroke="black" points="568.64,-1264.23 569.11,-1253.64 562.14,-1261.62 568.64,-1264.23"/>
<text text-anchor="middle" x="573.5" y="-1319.3" font-family="Times,serif" font-size="14.00">1274.38</text>
</g>
<!-- 4 -->
<g id="node5" class="node">
<title>4</title>
<ellipse fill="none" stroke="black" cx="303" cy="-1149" rx="27" ry="18"/>
<text text-anchor="middle" x="303" y="-1145.3" font-family="Times,serif" font-size="14.00">4</text>
</g>
<!-- 1&#45;&gt;4 -->
<g id="edge4" class="edge">
<title>1&#45;&gt;4</title>
<path fill="none" stroke="black" d="M311.14,-1394.53C290.48,-1373.25 254.02,-1331.22 240,-1287 226.59,-1244.71 258.54,-1198.37 281.68,-1171.88"/>
<polygon fill="black" stroke="black" points="284.4,-1174.09 288.51,-1164.32 279.21,-1169.39 284.4,-1174.09"/>
<text text-anchor="middle" x="269.5" y="-1275.8" font-family="Times,serif" font-size="14.00">1283.45</text>
</g>
<!-- 5 -->
<g id="node6" class="node">
<title>5</title>
<ellipse fill="none" stroke="black" cx="390" cy="-1062" rx="27" ry="18"/>
<text text-anchor="middle" x="390" y="-1058.3" font-family="Times,serif" font-size="14.00">5</text>
</g>
<!-- 1&#45;&gt;5 -->
<g id="edge5" class="edge">
<title>1&#45;&gt;5</title>
<path fill="none" stroke="black" d="M349.27,-1400.66C362.44,-1394.92 378.35,-1386.13 389,-1374 443.89,-1311.49 442.39,-1281.71 458,-1200 466.4,-1156.04 434.26,-1110.57 411.32,-1084.64"/>
<polygon fill="black" stroke="black" points="413.88,-1082.26 404.55,-1077.25 408.72,-1086.99 413.88,-1082.26"/>
<text text-anchor="middle" x="483.5" y="-1232.3" font-family="Times,serif" font-size="14.00">1283.45</text>
</g>
<!-- 6 -->
<g id="node7" class="node">
<title>6</title>
<ellipse fill="none" stroke="black" cx="291" cy="-975" rx="27" ry="18"/>
<text text-anchor="middle" x="291" y="-971.3" font-family="Times,serif" font-size="14.00">6</text>
</g>
<!-- 1&#45;&gt;6 -->
<g id="edge6" class="edge">
<title>1&#45;&gt;6</title>
<path fill="none" stroke="black" d="M299.51,-1405.33C237.28,-1395.96 87,-1368.7 87,-1324 87,-1324 87,-1324 87,-1104.5 87,-1036.24 161.6,-1062.93 219,-1026 234.43,-1016.07 251.3,-1004.4 264.83,-994.83"/>
<polygon fill="black" stroke="black" points="267.07,-997.54 273.19,-988.89 263.01,-991.83 267.07,-997.54"/>
<text text-anchor="middle" x="116.5" y="-1188.8" font-family="Times,serif" font-size="14.00">1283.45</text>
</g>
<!-- 7 -->
<g id="node8" class="node">
<title>7</title>
<ellipse fill="none" stroke="black" cx="291" cy="-888" rx="27" ry="18"/>
<text text-anchor="middle" x="291" y="-884.3" font-family="Times,serif" font-size="14.00">7</text>
</g>
<!-- 1&#45;&gt;7 -->
<g id="edge7" class="edge">
<title>1&#45;&gt;7</title>
<path fill="none" stroke="black" d="M299.04,-1407.75C220.94,-1403.4 0,-1385.63 0,-1324 0,-1324 0,-1324 0,-974 0,-921.72 175.23,-899.39 253.74,-892.01"/>
<polygon fill="black" stroke="black" points="254.5,-895.46 264.15,-891.07 253.87,-888.49 254.5,-895.46"/>
<text text-anchor="middle" x="29.5" y="-1145.3" font-family="Times,serif" font-size="14.00">1283.45</text>
</g>
<!-- 8 -->
<g id="node9" class="node">
<title>8</title>
<ellipse fill="none" stroke="red" stroke-width="4" cx="594" cy="-801" rx="27" ry="18"/>
<text text-anchor="middle" x="594" y="-797.3" font-family="Times,serif" font-size="14.00">8</text>
</g>
<!-- 1&#45;&gt;8 -->
<g id="edge8" class="edge">
<title>1&#45;&gt;8</title>
<path fill="none" stroke="red" stroke-width="4" d="M352.77,-1407.17C454.44,-1399.87 811,-1370.91 811,-1324 811,-1324 811,-1324 811,-887 811,-848.56 691.46,-820.36 629.83,-808.37"/>
<polygon fill="red" stroke="red" stroke-width="4" points="630.22,-804.88 619.74,-806.45 628.92,-811.76 630.22,-804.88"/>
<text text-anchor="middle" x="840.5" y="-1101.8" font-family="Times,serif" font-size="14.00" fill="red">1283.45</text>
</g>
<!-- 2&#45;&gt;3 -->
<g id="edge9" class="edge">
<title>2&#45;&gt;3</title>
<path fill="none" stroke="black" d="M350.23,-1314.74C389.24,-1302.91 468.26,-1278.33 534,-1254 537.11,-1252.85 540.33,-1251.61 543.54,-1250.33"/>
<polygon fill="black" stroke="black" points="545.05,-1253.5 552.99,-1246.49 542.41,-1247.01 545.05,-1253.5"/>
<text text-anchor="middle" x="512.5" y="-1275.8" font-family="Times,serif" font-size="14.00">1272.98</text>
</g>
<!-- 2&#45;&gt;4 -->
<g id="edge10" class="edge">
<title>2&#45;&gt;4</title>
<path fill="none" stroke="black" d="M316.9,-1305.84C309.9,-1292.43 300.8,-1272.61 297,-1254 291.73,-1228.23 294.39,-1198.18 297.66,-1177.02"/>
<polygon fill="black" stroke="black" points="301.12,-1177.57 299.34,-1167.13 294.22,-1176.4 301.12,-1177.57"/>
<text text-anchor="middle" x="326.5" y="-1232.3" font-family="Times,serif" font-size="14.00">1283.45</text>
</g>
<!-- 2&#45;&gt;5 -->
<g id="edge11" class="edge">
<title>2&#45;&gt;5</title>
<path fill="none" stroke="black" d="M337.76,-1306.51C352.35,-1285.24 373.33,-1246.39 356,-1218 346.89,-1203.07 330.11,-1214.93 321,-1200 317.53,-1194.31 318.45,-1191.16 321,-1185 325.33,-1174.55 331.77,-1175.7 339,-1167 357.59,-1144.62 363.69,-1139.36 376,-1113 379.36,-1105.81 382.06,-1097.66 384.16,-1090.05"/>
<polygon fill="black" stroke="black" points="387.6,-1090.71 386.66,-1080.16 380.82,-1089 387.6,-1090.71"/>
<text text-anchor="middle" x="350.5" y="-1188.8" font-family="Times,serif" font-size="14.00">1283.45</text>
</g>
<!-- 2&#45;&gt;6 -->
<g id="edge12" class="edge">
<title>2&#45;&gt;6</title>
<path fill="none" stroke="black" d="M310.17,-1308.16C282.98,-1283.2 228.37,-1227.59 208,-1167 186.88,-1104.18 238.56,-1033.4 269.61,-998.26"/>
<polygon fill="black" stroke="black" points="272.51,-1000.28 276.64,-990.52 267.32,-995.58 272.51,-1000.28"/>
<text text-anchor="middle" x="237.5" y="-1145.3" font-family="Times,serif" font-size="14.00">1283.45</text>
</g>
<!-- 2&#45;&gt;7 -->
<g id="edge13" class="edge">
<title>2&#45;&gt;7</title>
<path fill="none" stroke="black" d="M306.56,-1310.36C295.88,-1303.78 282.5,-1295.25 271,-1287 192.99,-1231.05 169.2,-1205.36 143,-1113 118.4,-1026.28 215.43,-942.75 264.36,-907.08"/>
<polygon fill="black" stroke="black" points="266.51,-909.84 272.61,-901.18 262.44,-904.15 266.51,-909.84"/>
<text text-anchor="middle" x="172.5" y="-1101.8" font-family="Times,serif" font-size="14.00">1283.45</text>
</g>
<!-- 2&#45;&gt;8 -->
<g id="edge14" class="edge">
<title>2&#45;&gt;8</title>
<path fill="none" stroke="black" d="M352.42,-1319.18C441.31,-1309.36 724,-1275.11 724,-1237 724,-1237 724,-1237 724,-887 724,-841.7 668.02,-819.25 629.53,-809.17"/>
<polygon fill="black" stroke="black" points="630.23,-805.74 619.68,-806.76 628.56,-812.54 630.23,-805.74"/>
<text text-anchor="middle" x="753.5" y="-1058.3" font-family="Times,serif" font-size="14.00">1283.45</text>
</g>
<!-- 3&#45;&gt;4 -->
<g id="edge15" class="edge">
<title>3&#45;&gt;4</title>
<path fill="none" stroke="black" d="M553.2,-1224.87C547.09,-1222.33 540.37,-1219.82 534,-1218 486.36,-1204.42 471.65,-1213.55 424,-1200 392.29,-1190.98 357.68,-1176.14 333.63,-1164.96"/>
<polygon fill="black" stroke="black" points="334.86,-1161.67 324.32,-1160.57 331.88,-1168 334.86,-1161.67"/>
<text text-anchor="middle" x="453.5" y="-1188.8" font-family="Times,serif" font-size="14.00">1287.18</text>
</g>
<!-- 3&#45;&gt;5 -->
<g id="edge16" class="edge">
<title>3&#45;&gt;5</title>
<path fill="none" stroke="black" d="M558.35,-1221.69C542.61,-1208.67 518.81,-1187.81 501,-1167 477.04,-1139 482.26,-1122.81 455,-1098 445.37,-1089.24 433.15,-1081.92 421.92,-1076.28"/>
<polygon fill="black" stroke="black" points="423.32,-1073.07 412.78,-1071.94 420.31,-1079.39 423.32,-1073.07"/>
<text text-anchor="middle" x="530.5" y="-1145.3" font-family="Times,serif" font-size="14.00">1274.38</text>
</g>
<!-- 3&#45;&gt;6 -->
<g id="edge17" class="edge">
<title>3&#45;&gt;6</title>
<path fill="none" stroke="black" d="M576.78,-1217.96C578.19,-1195.98 577.58,-1157.43 560,-1131 551.39,-1118.05 543.1,-1121.38 530,-1113 462.07,-1069.58 451.29,-1048.65 380,-1011 362.2,-1001.6 341.31,-993.26 324.24,-987.07"/>
<polygon fill="black" stroke="black" points="325.28,-983.73 314.68,-983.69 322.94,-990.33 325.28,-983.73"/>
<text text-anchor="middle" x="559.5" y="-1101.8" font-family="Times,serif" font-size="14.00">1283.45</text>
</g>
<!-- 3&#45;&gt;7 -->
<g id="edge18" class="edge">
<title>3&#45;&gt;7</title>
<path fill="none" stroke="black" d="M583.6,-1218.71C586.19,-1212.96 588.7,-1206.35 590,-1200 595.27,-1174.31 618.18,-1166.63 589,-1098 580.27,-1077.46 464.4,-969.63 446,-957 416.64,-936.85 405.6,-938.32 373,-924 356.49,-916.75 338.03,-908.85 322.81,-902.39"/>
<polygon fill="black" stroke="black" points="323.9,-899.05 313.33,-898.38 321.17,-905.5 323.9,-899.05"/>
<text text-anchor="middle" x="604.5" y="-1058.3" font-family="Times,serif" font-size="14.00">1283.45</text>
</g>
<!-- 3&#45;&gt;8 -->
<g id="edge19" class="edge">
<title>3&#45;&gt;8</title>
<path fill="none" stroke="black" d="M590.13,-1220.77C595.77,-1214.8 601.8,-1207.51 606,-1200 618.11,-1178.33 633.14,-1105.17 636,-1080 648.24,-972.12 644.4,-940.31 611,-837 609.96,-833.79 608.68,-830.49 607.29,-827.27"/>
<polygon fill="black" stroke="black" points="610.35,-825.55 602.93,-817.99 604.01,-828.53 610.35,-825.55"/>
<text text-anchor="middle" x="670.5" y="-1014.8" font-family="Times,serif" font-size="14.00">1283.45</text>
</g>
<!-- 4&#45;&gt;5 -->
<g id="edge20" class="edge">
<title>4&#45;&gt;5</title>
<path fill="none" stroke="black" d="M304.29,-1130.59C305.87,-1120.12 309.35,-1107.11 317,-1098 322.74,-1091.16 340.77,-1082.49 357.47,-1075.49"/>
<polygon fill="black" stroke="black" points="359.11,-1078.6 367.05,-1071.59 356.46,-1072.12 359.11,-1078.6"/>
<text text-anchor="middle" x="346.5" y="-1101.8" font-family="Times,serif" font-size="14.00">1272.98</text>
</g>
<!-- 4&#45;&gt;6 -->
<g id="edge21" class="edge">
<title>4&#45;&gt;6</title>
<path fill="none" stroke="black" d="M300.62,-1130.99C298.79,-1117.26 296.36,-1097.42 295,-1080 292.98,-1054.07 291.97,-1024.43 291.47,-1003.44"/>
<polygon fill="black" stroke="black" points="294.96,-1003.24 291.25,-993.32 287.97,-1003.39 294.96,-1003.24"/>
<text text-anchor="middle" x="324.5" y="-1058.3" font-family="Times,serif" font-size="14.00">1283.45</text>
</g>
<!-- 4&#45;&gt;7 -->
<g id="edge22" class="edge">
<title>4&#45;&gt;7</title>
<path fill="none" stroke="black" d="M290.18,-1133.12C272.36,-1111.34 240.94,-1068.7 229,-1026 217.15,-983.62 247.79,-937.65 270.1,-911.2"/>
<polygon fill="black" stroke="black" points="272.75,-913.47 276.7,-903.64 267.48,-908.87 272.75,-913.47"/>
<text text-anchor="middle" x="258.5" y="-1014.8" font-family="Times,serif" font-size="14.00">1283.45</text>
</g>
<!-- 4&#45;&gt;8 -->
<g id="edge23" class="edge">
<title>4&#45;&gt;8</title>
<path fill="none" stroke="black" d="M325.81,-1139.23C381.69,-1116.33 524.82,-1048.81 580,-939 597.51,-904.14 598.39,-858.07 596.72,-829.23"/>
<polygon fill="black" stroke="black" points="600.2,-828.81 595.99,-819.09 593.22,-829.31 600.2,-828.81"/>
<text text-anchor="middle" x="598.5" y="-971.3" font-family="Times,serif" font-size="14.00">1283.45</text>
</g>
<!-- 5&#45;&gt;6 -->
<g id="edge24" class="edge">
<title>5&#45;&gt;6</title>
<path fill="none" stroke="black" d="M367.45,-1052.04C348.97,-1044.38 324.67,-1033.43 317,-1026 310.23,-1019.45 304.87,-1010.75 300.83,-1002.44"/>
<polygon fill="black" stroke="black" points="303.91,-1000.76 296.67,-993.03 297.51,-1003.59 303.91,-1000.76"/>
<text text-anchor="middle" x="346.5" y="-1014.8" font-family="Times,serif" font-size="14.00">574.092</text>
</g>
<!-- 5&#45;&gt;7 -->
<g id="edge25" class="edge">
<title>5&#45;&gt;7</title>
<path fill="none" stroke="black" d="M389.69,-1043.98C388.35,-1016.08 382.06,-960.13 354,-924 346.34,-914.14 335.08,-906.65 324.2,-901.18"/>
<polygon fill="black" stroke="black" points="325.37,-897.87 314.82,-896.88 322.45,-904.23 325.37,-897.87"/>
<text text-anchor="middle" x="412.5" y="-971.3" font-family="Times,serif" font-size="14.00">1283.45</text>
</g>
<!-- 5&#45;&gt;8 -->
<g id="edge26" class="edge">
<title>5&#45;&gt;8</title>
<path fill="none" stroke="black" d="M403.31,-1046.14C426.49,-1020.49 476.08,-966.54 521,-924 529.93,-915.55 534.43,-915.69 542,-906 552.13,-893.02 570.47,-854.34 582.44,-827.99"/>
<polygon fill="black" stroke="black" points="585.77,-829.13 586.69,-818.58 579.39,-826.26 585.77,-829.13"/>
<text text-anchor="middle" x="550.5" y="-927.8" font-family="Times,serif" font-size="14.00">1283.45</text>
</g>
<!-- 6&#45;&gt;7 -->
<g id="edge27" class="edge">
<title>6&#45;&gt;7</title>
<path fill="none" stroke="black" d="M291,-956.8C291,-945.16 291,-929.55 291,-916.24"/>
<polygon fill="black" stroke="black" points="294.5,-916.18 291,-906.18 287.5,-916.18 294.5,-916.18"/>
<text text-anchor="middle" x="320.5" y="-927.8" font-family="Times,serif" font-size="14.00">1287.18</text>
</g>
<!-- 6&#45;&gt;8 -->
<g id="edge28" class="edge">
<title>6&#45;&gt;8</title>
<path fill="none" stroke="black" d="M316.52,-968.65C354.48,-960.54 422.4,-945.41 432,-939 463.71,-917.82 454.89,-895.77 483,-870 507.16,-847.85 539.57,-828.98 563.13,-816.77"/>
<polygon fill="black" stroke="black" points="564.98,-819.76 572.31,-812.12 561.81,-813.51 564.98,-819.76"/>
<text text-anchor="middle" x="512.5" y="-884.3" font-family="Times,serif" font-size="14.00">1274.38</text>
</g>
<!-- 9 -->
<g id="node10" class="node">
<title>9</title>
<ellipse fill="none" stroke="black" cx="439" cy="-714" rx="27" ry="18"/>
<text text-anchor="middle" x="439" y="-710.3" font-family="Times,serif" font-size="14.00">9</text>
</g>
<!-- 6&#45;&gt;9 -->
<g id="edge29" class="edge">
<title>6&#45;&gt;9</title>
<path fill="none" stroke="black" d="M313.95,-965.37C327.01,-959.53 342.92,-950.74 354,-939 407.54,-882.3 428.25,-788.52 435.5,-742.37"/>
<polygon fill="black" stroke="black" points="439,-742.64 436.99,-732.24 432.07,-741.62 439,-742.64"/>
<text text-anchor="middle" x="440.5" y="-840.8" font-family="Times,serif" font-size="14.00">1283.45</text>
</g>
<!-- 10 -->
<g id="node11" class="node">
<title>10</title>
<ellipse fill="none" stroke="black" cx="223" cy="-627" rx="27" ry="18"/>
<text text-anchor="middle" x="223" y="-623.3" font-family="Times,serif" font-size="14.00">10</text>
</g>
<!-- 6&#45;&gt;10 -->
<g id="edge30" class="edge">
<title>6&#45;&gt;10</title>
<path fill="none" stroke="black" d="M275.84,-960C249.8,-934.81 197.5,-878.84 178,-819 159.01,-760.72 188.94,-690.02 208.41,-653.14"/>
<polygon fill="black" stroke="black" points="211.62,-654.55 213.33,-644.1 205.48,-651.2 211.62,-654.55"/>
<text text-anchor="middle" x="207.5" y="-797.3" font-family="Times,serif" font-size="14.00">1283.45</text>
</g>
<!-- 7&#45;&gt;8 -->
<g id="edge31" class="edge">
<title>7&#45;&gt;8</title>
<path fill="none" stroke="black" d="M301.06,-871.18C309.27,-859.7 321.94,-844.86 337,-837 374.45,-817.45 495.08,-807.75 556.83,-803.97"/>
<polygon fill="black" stroke="black" points="557.15,-807.46 566.92,-803.37 556.73,-800.47 557.15,-807.46"/>
<text text-anchor="middle" x="366.5" y="-840.8" font-family="Times,serif" font-size="14.00">1272.98</text>
</g>
<!-- 7&#45;&gt;9 -->
<g id="edge32" class="edge">
<title>7&#45;&gt;9</title>
<path fill="none" stroke="black" d="M296.96,-870.08C305.24,-848.22 321.88,-809.81 345,-783 363.37,-761.71 389.66,-743.41 409.77,-731.18"/>
<polygon fill="black" stroke="black" points="411.7,-734.1 418.52,-726 408.14,-728.08 411.7,-734.1"/>
<text text-anchor="middle" x="374.5" y="-797.3" font-family="Times,serif" font-size="14.00">1283.45</text>
</g>
<!-- 7&#45;&gt;10 -->
<g id="edge33" class="edge">
<title>7&#45;&gt;10</title>
<path fill="none" stroke="black" d="M282.49,-870.69C268.03,-842.68 239.65,-786.36 234,-765 224.2,-727.94 222.37,-683.43 222.36,-655.42"/>
<polygon fill="black" stroke="black" points="225.86,-655.23 222.44,-645.2 218.86,-655.17 225.86,-655.23"/>
<text text-anchor="middle" x="263.5" y="-753.8" font-family="Times,serif" font-size="14.00">1283.45</text>
</g>
<!-- 8&#45;&gt;9 -->
<g id="edge34" class="edge">
<title>8&#45;&gt;9</title>
<path fill="none" stroke="black" d="M571.99,-790.15C557.35,-783.43 537.8,-774.12 521,-765 502.38,-754.89 482.04,-742.5 466.28,-732.58"/>
<polygon fill="black" stroke="black" points="467.9,-729.46 457.58,-727.06 464.15,-735.37 467.9,-729.46"/>
<text text-anchor="middle" x="550.5" y="-753.8" font-family="Times,serif" font-size="14.00">1287.18</text>
</g>
<!-- 8&#45;&gt;10 -->
<g id="edge35" class="edge">
<title>8&#45;&gt;10</title>
<path fill="none" stroke="black" d="M567.03,-797.66C509.58,-792.47 376.88,-779.3 334,-765 305.5,-755.49 295.75,-753.73 275,-732 253.85,-709.84 239.5,-677.41 231.32,-654.67"/>
<polygon fill="black" stroke="black" points="234.55,-653.3 228,-644.97 227.93,-655.57 234.55,-653.3"/>
<text text-anchor="middle" x="304.5" y="-710.3" font-family="Times,serif" font-size="14.00">1274.38</text>
</g>
<!-- 11 -->
<g id="node12" class="node">
<title>11</title>
<ellipse fill="none" stroke="black" cx="430" cy="-540" rx="27" ry="18"/>
<text text-anchor="middle" x="430" y="-536.3" font-family="Times,serif" font-size="14.00">11</text>
</g>
<!-- 8&#45;&gt;11 -->
<g id="edge36" class="edge">
<title>8&#45;&gt;11</title>
<path fill="none" stroke="black" d="M590.37,-782.97C587.99,-773.13 584.49,-760.63 580,-750 551.78,-683.23 542.22,-666.44 498,-609 484.8,-591.86 467.55,-574.65 453.72,-561.83"/>
<polygon fill="black" stroke="black" points="455.78,-558.97 446.03,-554.83 451.06,-564.15 455.78,-558.97"/>
<text text-anchor="middle" x="575.5" y="-666.8" font-family="Times,serif" font-size="14.00">1283.45</text>
</g>
<!-- 12 -->
<g id="node13" class="node">
<title>12</title>
<ellipse fill="none" stroke="black" cx="530" cy="-453" rx="27" ry="18"/>
<text text-anchor="middle" x="530" y="-449.3" font-family="Times,serif" font-size="14.00">12</text>
</g>
<!-- 8&#45;&gt;12 -->
<g id="edge37" class="edge">
<title>8&#45;&gt;12</title>
<path fill="none" stroke="black" d="M600.74,-783.49C613.4,-750.51 638.71,-674.05 630,-609 622.11,-550.09 608.96,-534.73 571,-489 566.42,-483.48 560.91,-478.14 555.44,-473.35"/>
<polygon fill="black" stroke="black" points="557.48,-470.5 547.56,-466.78 553,-475.87 557.48,-470.5"/>
<text text-anchor="middle" x="660.5" y="-623.3" font-family="Times,serif" font-size="14.00">1283.45</text>
</g>
<!-- 13 -->
<g id="node14" class="node">
<title>13</title>
<ellipse fill="none" stroke="black" cx="315" cy="-366" rx="27" ry="18"/>
<text text-anchor="middle" x="315" y="-362.3" font-family="Times,serif" font-size="14.00">13</text>
</g>
<!-- 8&#45;&gt;13 -->
<g id="edge38" class="edge">
<title>8&#45;&gt;13</title>
<path fill="none" stroke="black" d="M570.2,-792.15C549.28,-785.19 518.03,-774.66 491,-765 451.66,-750.95 441.13,-749.06 403,-732 402.26,-731.67 300.57,-678.57 300,-678 284.51,-662.56 259.27,-612.23 254,-591 252.39,-584.53 252.58,-582.51 254,-576 261.51,-541.61 276.07,-537.46 287,-504 299.11,-466.92 307.05,-422.42 311.28,-394.42"/>
<polygon fill="black" stroke="black" points="314.79,-394.6 312.77,-384.2 307.87,-393.59 314.79,-394.6"/>
<text text-anchor="middle" x="283.5" y="-579.8" font-family="Times,serif" font-size="14.00">1283.45</text>
</g>
<!-- 14 -->
<g id="node15" class="node">
<title>14</title>
<ellipse fill="none" stroke="black" cx="501" cy="-279" rx="27" ry="18"/>
<text text-anchor="middle" x="501" y="-275.3" font-family="Times,serif" font-size="14.00">14</text>
</g>
<!-- 8&#45;&gt;14 -->
<g id="edge39" class="edge">
<title>8&#45;&gt;14</title>
<path fill="none" stroke="black" d="M621.06,-800.73C677.17,-800.7 801,-791.92 801,-715 801,-715 801,-715 801,-495.5 801,-466.57 796.43,-456.43 777,-435 743.76,-398.33 720.85,-408.77 678,-384 629.01,-355.68 620.16,-343.03 571,-315 558.3,-307.76 543.91,-300.42 531.5,-294.35"/>
<polygon fill="black" stroke="black" points="532.98,-291.18 522.45,-289.98 529.93,-297.48 532.98,-291.18"/>
<text text-anchor="middle" x="830.5" y="-536.3" font-family="Times,serif" font-size="14.00">1283.45</text>
</g>
<!-- 15 -->
<g id="node16" class="node">
<title>15</title>
<ellipse fill="none" stroke="red" stroke-width="4" cx="636" cy="-192" rx="27" ry="18"/>
<text text-anchor="middle" x="636" y="-188.3" font-family="Times,serif" font-size="14.00">15</text>
</g>
<!-- 8&#45;&gt;15 -->
<g id="edge40" class="edge">
<title>8&#45;&gt;15</title>
<path fill="none" stroke="red" stroke-width="4" d="M620.87,-798.01C693.45,-791.89 888,-770.32 888,-715 888,-715 888,-715 888,-278 888,-233.09 742.51,-207.36 672.63,-197.58"/>
<polygon fill="red" stroke="red" stroke-width="4" points="672.87,-194.08 662.49,-196.2 671.93,-201.02 672.87,-194.08"/>
<text text-anchor="middle" x="917.5" y="-492.8" font-family="Times,serif" font-size="14.00" fill="red">1283.45</text>
</g>
<!-- 9&#45;&gt;10 -->
<g id="edge41" class="edge">
<title>9&#45;&gt;10</title>
<path fill="none" stroke="black" d="M413.92,-707.1C389.51,-701.02 351.59,-690.65 320,-678 296.12,-668.43 270.28,-654.95 251.28,-644.39"/>
<polygon fill="black" stroke="black" points="252.98,-641.33 242.54,-639.48 249.54,-647.43 252.98,-641.33"/>
<text text-anchor="middle" x="349.5" y="-666.8" font-family="Times,serif" font-size="14.00">1272.98</text>
</g>
<!-- 9&#45;&gt;11 -->
<g id="edge42" class="edge">
<title>9&#45;&gt;11</title>
<path fill="none" stroke="black" d="M438.1,-695.88C436.54,-666 433.3,-604.11 431.43,-568.27"/>
<polygon fill="black" stroke="black" points="434.91,-567.86 430.89,-558.05 427.92,-568.22 434.91,-567.86"/>
<text text-anchor="middle" x="464.5" y="-623.3" font-family="Times,serif" font-size="14.00">1283.45</text>
</g>
<!-- 9&#45;&gt;12 -->
<g id="edge43" class="edge">
<title>9&#45;&gt;12</title>
<path fill="none" stroke="black" d="M456.14,-699.48C485.57,-675.02 544.59,-620.17 566,-558 575.47,-530.5 560.95,-498.92 547.61,-477.85"/>
<polygon fill="black" stroke="black" points="550.51,-475.88 542.05,-469.5 544.68,-479.76 550.51,-475.88"/>
<text text-anchor="middle" x="587.5" y="-579.8" font-family="Times,serif" font-size="14.00">1283.45</text>
</g>
<!-- 9&#45;&gt;13 -->
<g id="edge44" class="edge">
<title>9&#45;&gt;13</title>
<path fill="none" stroke="black" d="M435.05,-696.16C426.78,-661.47 407.69,-584.61 399,-576 378,-555.21 355.5,-579.28 335,-558 290.28,-511.57 308.61,-481.01 301,-417 300.21,-410.38 299.74,-408.55 301,-402 301.59,-398.95 302.44,-395.83 303.43,-392.76"/>
<polygon fill="black" stroke="black" points="306.73,-393.93 306.97,-383.34 300.18,-391.48 306.73,-393.93"/>
<text text-anchor="middle" x="364.5" y="-536.3" font-family="Times,serif" font-size="14.00">1283.45</text>
</g>
<!-- 9&#45;&gt;14 -->
<g id="edge45" class="edge">
<title>9&#45;&gt;14</title>
<path fill="none" stroke="black" d="M463.19,-705.48C504.76,-691.05 588.46,-655.11 621,-591 628.35,-576.51 677.12,-522.37 578,-348 566.22,-327.27 545.74,-309.65 528.86,-297.54"/>
<polygon fill="black" stroke="black" points="530.65,-294.52 520.43,-291.72 526.68,-300.28 530.65,-294.52"/>
<text text-anchor="middle" x="666.5" y="-492.8" font-family="Times,serif" font-size="14.00">1283.45</text>
</g>
<!-- 9&#45;&gt;15 -->
<g id="edge46" class="edge">
<title>9&#45;&gt;15</title>
<path fill="none" stroke="black" d="M465.5,-710.33C507.45,-705.64 586.68,-694.82 609,-678 678.69,-625.46 672.26,-586.74 700,-504 722.22,-437.73 733.95,-416.49 720,-348 708.43,-291.22 700.71,-276.51 669,-228 665.92,-223.28 662.16,-218.62 658.31,-214.31"/>
<polygon fill="black" stroke="black" points="660.81,-211.85 651.39,-207 655.72,-216.67 660.81,-211.85"/>
<text text-anchor="middle" x="750.5" y="-449.3" font-family="Times,serif" font-size="14.00">1283.45</text>
</g>
<!-- 10&#45;&gt;11 -->
<g id="edge47" class="edge">
<title>10&#45;&gt;11</title>
<path fill="none" stroke="black" d="M246.33,-617.76C265.44,-610.9 293.13,-600.72 317,-591 345.17,-579.54 376.79,-565.44 399.4,-555.14"/>
<polygon fill="black" stroke="black" points="400.86,-558.32 408.5,-550.97 397.95,-551.95 400.86,-558.32"/>
<text text-anchor="middle" x="381.5" y="-579.8" font-family="Times,serif" font-size="14.00">574.092</text>
</g>
<!-- 10&#45;&gt;12 -->
<g id="edge48" class="edge">
<title>10&#45;&gt;12</title>
<path fill="none" stroke="black" d="M250,-624.42C288.01,-621.46 358.93,-613.22 415,-591 470.08,-569.17 487.08,-555.71 516,-504 519.98,-496.89 522.89,-488.57 525,-480.77"/>
<polygon fill="black" stroke="black" points="528.42,-481.52 527.32,-470.98 521.61,-479.9 528.42,-481.52"/>
<text text-anchor="middle" x="533.5" y="-536.3" font-family="Times,serif" font-size="14.00">1283.45</text>
</g>
<!-- 10&#45;&gt;13 -->
<g id="edge49" class="edge">
<title>10&#45;&gt;13</title>
<path fill="none" stroke="black" d="M220.55,-608.8C217.38,-582.51 213.42,-530.98 224,-489 234.69,-446.59 241.89,-435.51 270,-402 275.07,-395.95 281.35,-390.28 287.59,-385.33"/>
<polygon fill="black" stroke="black" points="290.06,-387.86 295.97,-379.06 285.86,-382.25 290.06,-387.86"/>
<text text-anchor="middle" x="253.5" y="-492.8" font-family="Times,serif" font-size="14.00">1283.45</text>
</g>
<!-- 10&#45;&gt;14 -->
<g id="edge50" class="edge">
<title>10&#45;&gt;14</title>
<path fill="none" stroke="black" d="M211.23,-610.75C187.12,-577.51 136.84,-496.61 167,-435 210.58,-345.97 259.82,-342.69 355,-315 404.25,-300.67 420.35,-313.26 469,-297 470.04,-296.65 471.1,-296.27 472.15,-295.86"/>
<polygon fill="black" stroke="black" points="473.79,-298.96 481.48,-291.67 470.93,-292.58 473.79,-298.96"/>
<text text-anchor="middle" x="196.5" y="-449.3" font-family="Times,serif" font-size="14.00">1283.45</text>
</g>
<!-- 10&#45;&gt;15 -->
<g id="edge51" class="edge">
<title>10&#45;&gt;15</title>
<path fill="none" stroke="black" d="M198.59,-619.1C166.18,-608.27 113,-583.96 113,-541 113,-541 113,-541 113,-278 113,-228.72 479.43,-202.38 598.86,-195.11"/>
<polygon fill="black" stroke="black" points="599.21,-198.6 608.98,-194.5 598.79,-191.61 599.21,-198.6"/>
<text text-anchor="middle" x="142.5" y="-405.8" font-family="Times,serif" font-size="14.00">1283.45</text>
</g>
<!-- 11&#45;&gt;12 -->
<g id="edge52" class="edge">
<title>11&#45;&gt;12</title>
<path fill="none" stroke="black" d="M436.03,-521.97C440.48,-511.39 447.43,-498.12 457,-489 468.05,-478.47 482.87,-470.57 496.27,-464.97"/>
<polygon fill="black" stroke="black" points="497.65,-468.19 505.7,-461.29 495.11,-461.66 497.65,-468.19"/>
<text text-anchor="middle" x="486.5" y="-492.8" font-family="Times,serif" font-size="14.00">1287.18</text>
</g>
<!-- 11&#45;&gt;13 -->
<g id="edge53" class="edge">
<title>11&#45;&gt;13</title>
<path fill="none" stroke="black" d="M418.75,-523.47C408.9,-509.77 394.28,-489.21 382,-471 363.9,-444.17 343.89,-412.89 330.49,-391.69"/>
<polygon fill="black" stroke="black" points="333.3,-389.59 325.01,-382.99 327.38,-393.32 333.3,-389.59"/>
<text text-anchor="middle" x="411.5" y="-449.3" font-family="Times,serif" font-size="14.00">1283.45</text>
</g>
<!-- 11&#45;&gt;14 -->
<g id="edge54" class="edge">
<title>11&#45;&gt;14</title>
<path fill="none" stroke="black" d="M432.74,-521.79C437.84,-490.25 448.8,-424.37 455,-402 464.41,-368.07 479.37,-330.32 489.66,-305.93"/>
<polygon fill="black" stroke="black" points="492.91,-307.22 493.62,-296.65 486.48,-304.48 492.91,-307.22"/>
<text text-anchor="middle" x="484.5" y="-405.8" font-family="Times,serif" font-size="14.00">1283.45</text>
</g>
<!-- 11&#45;&gt;15 -->
<g id="edge55" class="edge">
<title>11&#45;&gt;15</title>
<path fill="none" stroke="black" d="M452.63,-529.72C458.89,-527.18 465.7,-524.46 472,-522 493.23,-513.73 499.9,-514.73 520,-504 608.54,-456.71 633.98,-425.79 664,-330 675.9,-292.04 661.09,-246.54 648.89,-218.71"/>
<polygon fill="black" stroke="black" points="651.92,-216.93 644.57,-209.3 645.56,-219.85 651.92,-216.93"/>
<text text-anchor="middle" x="686.5" y="-362.3" font-family="Times,serif" font-size="14.00">1283.45</text>
</g>
<!-- 12&#45;&gt;13 -->
<g id="edge56" class="edge">
<title>12&#45;&gt;13</title>
<path fill="none" stroke="black" d="M504.1,-447.74C465.92,-441.2 396.61,-428.26 374,-417 366.01,-413.02 350.41,-399.7 337.26,-387.8"/>
<polygon fill="black" stroke="black" points="339.62,-385.21 329.88,-381.05 334.89,-390.38 339.62,-385.21"/>
<text text-anchor="middle" x="403.5" y="-405.8" font-family="Times,serif" font-size="14.00">1287.18</text>
</g>
<!-- 12&#45;&gt;14 -->
<g id="edge57" class="edge">
<title>12&#45;&gt;14</title>
<path fill="none" stroke="black" d="M525.84,-435.03C522.59,-421.32 518.1,-401.5 515,-384 510.4,-358.03 506.52,-328.18 504.02,-307.13"/>
<polygon fill="black" stroke="black" points="507.48,-306.53 502.85,-297 500.53,-307.34 507.48,-306.53"/>
<text text-anchor="middle" x="544.5" y="-362.3" font-family="Times,serif" font-size="14.00">1283.45</text>
</g>
<!-- 12&#45;&gt;15 -->
<g id="edge58" class="edge">
<title>12&#45;&gt;15</title>
<path fill="none" stroke="black" d="M541.65,-436.44C551.28,-423.06 564.8,-402.98 574,-384 601.1,-328.08 620.52,-257.44 629.81,-219.68"/>
<polygon fill="black" stroke="black" points="633.22,-220.49 632.17,-209.94 626.42,-218.84 633.22,-220.49"/>
<text text-anchor="middle" x="630.5" y="-318.8" font-family="Times,serif" font-size="14.00">1283.45</text>
</g>
<!-- 13&#45;&gt;14 -->
<g id="edge59" class="edge">
<title>13&#45;&gt;14</title>
<path fill="none" stroke="black" d="M330.45,-350.94C343.4,-339.82 362.79,-324.61 382,-315 408.63,-301.69 441.2,-292.55 465.53,-286.95"/>
<polygon fill="black" stroke="black" points="466.4,-290.35 475.41,-284.77 464.9,-283.51 466.4,-290.35"/>
<text text-anchor="middle" x="411.5" y="-318.8" font-family="Times,serif" font-size="14.00">574.092</text>
</g>
<!-- 13&#45;&gt;15 -->
<g id="edge60" class="edge">
<title>13&#45;&gt;15</title>
<path fill="none" stroke="black" d="M324.57,-348.92C339.16,-325.83 369.2,-283.6 406,-261 467.85,-223.02 552.11,-205.23 599.59,-197.75"/>
<polygon fill="black" stroke="black" points="600.33,-201.18 609.7,-196.23 599.29,-194.26 600.33,-201.18"/>
<text text-anchor="middle" x="435.5" y="-275.3" font-family="Times,serif" font-size="14.00">1283.45</text>
</g>
<!-- 14&#45;&gt;15 -->
<g id="edge61" class="edge">
<title>14&#45;&gt;15</title>
<path fill="none" stroke="black" d="M516.55,-263.76C528.65,-253.12 546.16,-238.63 563,-228 576.01,-219.79 591.24,-212.21 604.41,-206.21"/>
<polygon fill="black" stroke="black" points="605.86,-209.4 613.57,-202.14 603.01,-203 605.86,-209.4"/>
<text text-anchor="middle" x="592.5" y="-231.8" font-family="Times,serif" font-size="14.00">1287.18</text>
</g>
<!-- 16 -->
<g id="node17" class="node">
<title>16</title>
<ellipse fill="none" stroke="black" cx="599" cy="-105" rx="27" ry="18"/>
<text text-anchor="middle" x="599" y="-101.3" font-family="Times,serif" font-size="14.00">16</text>
</g>
<!-- 15&#45;&gt;16 -->
<g id="edge62" class="edge">
<title>15&#45;&gt;16</title>
<path fill="none" stroke="black" d="M617.96,-178.41C611,-172.49 603.82,-164.79 600,-156 596.99,-149.07 595.91,-141.08 595.8,-133.54"/>
<polygon fill="black" stroke="black" points="599.3,-133.48 596.18,-123.35 592.31,-133.22 599.3,-133.48"/>
<text text-anchor="middle" x="629.5" y="-144.8" font-family="Times,serif" font-size="14.00">574.092</text>
</g>
<!-- 17 -->
<g id="node18" class="node">
<title>17</title>
<ellipse fill="none" stroke="red" stroke-width="4" cx="636" cy="-18" rx="27" ry="18"/>
<text text-anchor="middle" x="636" y="-14.3" font-family="Times,serif" font-size="14.00">17</text>
</g>
<!-- 15&#45;&gt;17 -->
<g id="edge63" class="edge">
<title>15&#45;&gt;17</title>
<path fill="none" stroke="red" stroke-width="4" d="M648.65,-175.95C652.79,-170.1 656.87,-163.11 659,-156 671.99,-112.57 671.99,-97.43 659,-54 657.84,-50.11 656.09,-46.26 654.07,-42.61"/>
<polygon fill="red" stroke="red" stroke-width="4" points="656.95,-40.62 648.65,-34.05 651.04,-44.37 656.95,-40.62"/>
<text text-anchor="middle" x="697.5" y="-101.3" font-family="Times,serif" font-size="14.00" fill="red">1283.45</text>
</g>
<!-- 16&#45;&gt;17 -->
<g id="edge64" class="edge">
<title>16&#45;&gt;17</title>
<path fill="none" stroke="black" d="M596.18,-86.65C595.32,-76.69 595.57,-64.19 600,-54 602.45,-48.37 606.27,-43.18 610.54,-38.63"/>
<polygon fill="black" stroke="black" points="613.11,-41.01 617.96,-31.59 608.29,-35.93 613.11,-41.01"/>
<text text-anchor="middle" x="629.5" y="-57.8" font-family="Times,serif" font-size="14.00">1287.18</text>
</g>
</g>
</svg>